# xmcd CD database file generated by OrangeCD 6.4
#
# Track frame offsets:
#	150
#	16738
#	37427
#	55366
#	70561
#	89967
#	112169
#	130251
#	147945
#	169376
#	181191
#	201248
#
# Disc length: 2992 seconds
#
# Revision: 0
# Processed by: cddbd v1.5.2PL0 Copyright (c) Steve Scherf et al.
# Submitted via: OrangeCD 6.4
#
DISCID=b90bae0c
DTITLE=Big Wolf Pappa (Kevin Wilcox) - Shine
DYEAR=2006
DGENRE=
TTITLE0=On The Side Of Angels 
TTITLE1=Fairytales 
TTITLE2=Burn Forever 
TTITLE3=Needed To Bleed 
TTITLE4=Unarmed 
TTITLE5=Wasted Time 
TTITLE6=Fallen 
TTITLE7=Shine
TTITLE8=Knick Of Time 
TTITLE9=Poisoning Me
TTITLE10=Raining In Ma 
TTITLE11=She´s No Angel 
EXTD=
EXTT0=
EXTT1=
EXTT2=
EXTT3=
EXTT4=
EXTT5=
EXTT6=
EXTT7=
EXTT8=
EXTT9=
EXTT10=
EXTT11=
PLAYORDER=
